<?xml version="1.0" standalone="no"?><!DOCTYPE svg PUBLIC "-//W3C//DTD SVG 1.1//EN" "http://www.w3.org/Graphics/SVG/1.1/DTD/svg11.dtd"><svg t="1538742237991" class="icon" style="" viewBox="0 0 1024 1024" version="1.1" xmlns="http://www.w3.org/2000/svg" p-id="6419" xmlns:xlink="http://www.w3.org/1999/xlink" width="200" height="200"><defs><style type="text/css"></style></defs><path d="M407.3728 175.773696c74.620928 0 102.331392 134.514688 102.331392 134.514688l0 102.147072c0 0 0.18432 77.717504-46.592 106.5984 0 0-25.773056 22.829056-23.10656 21.352448 2.676736-1.456128-13.312 77.882368 67.913728 91.132928 59.63776 11.854848 114.279424 41.474048 156.77952 84.958208 15.342592 16.244736 25.597952 131.766272 25.597952 131.766272l-629.722112 0c0 0-0.881664-93.819904 25.670656-131.725312 47.811584-39.85408 103.7056-68.856832 163.82464-84.978688 49.616896-13.249536 54.027264-87.953408 56.71424-86.45632 2.686976 1.476608-23.105536-21.372928-23.105536-21.372928s-45.053952-62.846976-44.396544-119.520256c0.646144-56.69376 0-93.881344 0-93.881344s20.829184-134.514688 103.87968-134.514688l64.293888 0L407.3728 175.773696zM817.488896 668.889088c48.017408 10.031104 91.808768 34.562048 125.427712 70.293504 12.224512 13.415424 20.51072 109.038592 20.51072 109.038592L732.551168 848.221184c0-0.22528 15.854592-164.953088-84.015104-208.560128-1.435648-0.840704-3.07712-1.375232-4.553728-2.112512 5.107712-13.085696 9.31328-26.520576 12.594176-40.203264 2.093056 1.230848-18.480128-17.659904-18.480128-17.659904-20.16256-29.372416-32.388096-63.44192-35.506176-98.926592 0.533504-46.92992 0-77.717504 0-77.717504s16.656384-111.315968 83.11296-111.315968l51.422208 0c59.70944 0 81.923072 111.315968 81.923072 111.315968l0 84.528128c0 0 0.14336 64.241664-37.289984 88.219648 0 0-20.614144 18.890752-18.481152 17.659904 2.132992-1.251328-10.768384 64.488448 54.191104 75.441152L817.488896 668.890112z" p-id="6420"></path></svg>