<?xml version="1.0" standalone="no"?><!DOCTYPE svg PUBLIC "-//W3C//DTD SVG 1.1//EN" "http://www.w3.org/Graphics/SVG/1.1/DTD/svg11.dtd"><svg t="1538665247680" class="icon" style="" viewBox="0 0 1024 1024" version="1.1" xmlns="http://www.w3.org/2000/svg" p-id="4963" xmlns:xlink="http://www.w3.org/1999/xlink" width="200" height="200"><defs><style type="text/css"></style></defs><path d="M873.094058 471.386c-22.445198-23.016203-62.301951-65.388243-108.530832-114.418936-58.32436-61.937654-124.483152-132.149762-171.239036-180.045609-50.693566-52.033074-109.669772-52.033074-160.403247-0.039909C386.895701 224.085638 320.65709 293.570175 262.21198 354.857007c-46.552246 48.866964-88.319511 92.705402-111.291712 116.161626-12.419867 12.743232-16.273638 29.955242-10.06217 44.849464 7.543813 17.97949 27.110451 28.696576 52.433186 28.696576l32.633235 0 3.329838 3.489474 0 267.066545c0 37.178761 33.32192 70.987774 69.888743 70.987774l87.020936 0c35.272341 0 69.892837-35.147498 69.892837-70.987774L456.056873 662.916175l3.369747-3.489474 25.566282 0 0-34.013675-39.772842 0-0.004093 0.004093-17.355273 0c-3.203972 0-5.801123 2.597151-5.801123 5.801123l0 18.584264c0 0.378623 0.038886 0.74906 0.10847 1.107217l0 164.209946c0 16.96437-19.522636 36.975123-36.004005 36.975123L299.147194 852.094792c-17.452487 0-35.960003-18.995633-35.960003-36.975123L263.187191 534.091134l0.25992-23.540136-70.151733 0c-12.260232 0-19.563568-4.057409-21.185508-7.874341-1.219781-2.88163 1.378393-6.127558 3.001357-7.834432 23.052019-23.540136 64.900126-67.454298 111.6161-116.445082 58.365292-61.207014 124.524085-130.651642 170.428577-177.692005 37.459147-38.397518 74.474179-38.437427 111.976304 0 46.556339 47.692209 112.591311 117.78459 170.795944 179.642426 46.348608 49.15042 86.330204 91.64628 109.017926 114.862028 0.972141 1.055029 4.218068 4.709255 2.918469 7.915273-1.578961 3.693112-8.601912 7.426133-20.85805 7.426133l-70.232574 0 0.339738 23.540136 0 281.029558c0 18.343787-20.945031 36.975123-35.963073 36.975123l-87.016843 0c-18.184151 0-35.999912-18.307971-35.999912-36.975123L602.133833 650.350998c0.017396-0.180102 0.027629-0.36225 0.027629-0.547469l0-18.584264c0-3.203972-2.597151-5.801123-5.801123-5.801123L579.041906 625.418142l-0.004093-0.004093-45.437865 0 0 34.013675 31.231305 0 3.413749 3.489474 0 152.204517c0 37.178761 33.276894 70.987774 69.888743 70.987774l87.016843 0c35.235502 0 69.855998-35.147498 69.855998-70.987774L795.006586 548.054147l3.366677-3.489474 32.633235 0c25.163099 0 44.685735-10.553357 52.072983-28.249391C889.370767 501.29724 885.553835 484.089323 873.094058 471.386z" p-id="4964"></path></svg>