<?xml version="1.0" standalone="no"?><!DOCTYPE svg PUBLIC "-//W3C//DTD SVG 1.1//EN" "http://www.w3.org/Graphics/SVG/1.1/DTD/svg11.dtd"><svg t="1538742198907" class="icon" style="" viewBox="0 0 1024 1024" version="1.1" xmlns="http://www.w3.org/2000/svg" p-id="6188" xmlns:xlink="http://www.w3.org/1999/xlink" width="200" height="200"><defs><style type="text/css"></style></defs><path d="M513 573a30 30 0 0 1-30-30V128a30 30 0 0 1 60 0v415a30 30 0 0 1-30 30z" p-id="6189"></path><path d="M689.57 225.58a27.62 27.62 0 0 0 11.67 22.59 330.05 330.05 0 0 1 113.55 140.66A328 328 0 1 1 281 284.64a329.63 329.63 0 0 1 43.69-36.75 27.62 27.62 0 0 0 11.7-22.61c0-22.39-25.23-35.62-43.55-22.76C193.9 272 129.29 387 129.54 517.17c0.42 211.7 171.52 382.46 383.23 382.45S896 728.05 896 516.4c0-129.63-64.36-244.22-162.87-313.57-18.31-12.89-43.56 0.35-43.56 22.75z" p-id="6190"></path></svg>