<?xml version="1.0" standalone="no"?><!DOCTYPE svg PUBLIC "-//W3C//DTD SVG 1.1//EN" "http://www.w3.org/Graphics/SVG/1.1/DTD/svg11.dtd"><svg t="1538620675579" class="icon" style="" viewBox="0 0 1024 1024" version="1.1" xmlns="http://www.w3.org/2000/svg" p-id="1950" xmlns:xlink="http://www.w3.org/1999/xlink" width="200" height="200"><defs><style type="text/css"></style></defs><path d="M1008 144c0-26.496-21.504-48-48-48s-48 21.504-48 48l0 74.624C819.264 92.224 671.36 16 512 16 238.528 16 16 238.528 16 512S238.528 1008 512 1008s496-222.528 496-496c0-26.496-21.504-48-48-48S912 485.504 912 512c0 220.544-179.456 400-400 400S112 732.544 112 512 291.456 112 512 112c139.904 0 268.16 73.408 340.736 192L768 304c-26.496 0-48 21.504-48 48S741.504 400 768 400l192 0c26.496 0 48-21.504 48-48 0-2.816-1.152-5.312-1.6-8 0.448-2.688 1.6-5.184 1.6-8L1008 144z" p-id="1951"></path></svg>